<svg id="visual" viewBox="0 0 960 360" width="960" height="360" xmlns="http://www.w3.org/2000/svg" xmlns:xlink="http://www.w3.org/1999/xlink" version="1.1"><rect x="0" y="0" width="960" height="360" fill="#001220"></rect><path d="M0 99L22.8 99.5C45.7 100 91.3 101 137 106.8C182.7 112.7 228.3 123.3 274 124.2C319.7 125 365.3 116 411.2 112C457 108 503 109 548.8 113.2C594.7 117.3 640.3 124.7 686 125C731.7 125.3 777.3 118.7 823 120.7C868.7 122.7 914.3 133.3 937.2 138.7L960 144L960 0L937.2 0C914.3 0 868.7 0 823 0C777.3 0 731.7 0 686 0C640.3 0 594.7 0 548.8 0C503 0 457 0 411.2 0C365.3 0 319.7 0 274 0C228.3 0 182.7 0 137 0C91.3 0 45.7 0 22.8 0L0 0Z" fill="#ff0000"></path><path d="M0 96L22.8 96.5C45.7 97 91.3 98 137 93.8C182.7 89.7 228.3 80.3 274 78.7C319.7 77 365.3 83 411.2 83.2C457 83.3 503 77.7 548.8 82.3C594.7 87 640.3 102 686 105.8C731.7 109.7 777.3 102.3 823 101.2C868.7 100 914.3 105 937.2 107.5L960 110L960 0L937.2 0C914.3 0 868.7 0 823 0C777.3 0 731.7 0 686 0C640.3 0 594.7 0 548.8 0C503 0 457 0 411.2 0C365.3 0 319.7 0 274 0C228.3 0 182.7 0 137 0C91.3 0 45.7 0 22.8 0L0 0Z" fill="#c82814"></path><path d="M0 70L22.8 70.2C45.7 70.3 91.3 70.7 137 72.5C182.7 74.3 228.3 77.7 274 79.5C319.7 81.3 365.3 81.7 411.2 82.3C457 83 503 84 548.8 83.3C594.7 82.7 640.3 80.3 686 80C731.7 79.7 777.3 81.3 823 79.7C868.7 78 914.3 73 937.2 70.5L960 68L960 0L937.2 0C914.3 0 868.7 0 823 0C777.3 0 731.7 0 686 0C640.3 0 594.7 0 548.8 0C503 0 457 0 411.2 0C365.3 0 319.7 0 274 0C228.3 0 182.7 0 137 0C91.3 0 45.7 0 22.8 0L0 0Z" fill="#92301e"></path><path d="M0 54L22.8 51.8C45.7 49.7 91.3 45.3 137 45.2C182.7 45 228.3 49 274 50.7C319.7 52.3 365.3 51.7 411.2 53.5C457 55.3 503 59.7 548.8 57C594.7 54.3 640.3 44.7 686 40.7C731.7 36.7 777.3 38.3 823 42.3C868.7 46.3 914.3 52.7 937.2 55.8L960 59L960 0L937.2 0C914.3 0 868.7 0 823 0C777.3 0 731.7 0 686 0C640.3 0 594.7 0 548.8 0C503 0 457 0 411.2 0C365.3 0 319.7 0 274 0C228.3 0 182.7 0 137 0C91.3 0 45.7 0 22.8 0L0 0Z" fill="#5e2f24"></path><path d="M0 32L22.8 33.8C45.7 35.7 91.3 39.3 137 38.3C182.7 37.3 228.3 31.7 274 29.2C319.7 26.7 365.3 27.3 411.2 29.2C457 31 503 34 548.8 35C594.7 36 640.3 35 686 33.7C731.7 32.3 777.3 30.7 823 30C868.7 29.3 914.3 29.7 937.2 29.8L960 30L960 0L937.2 0C914.3 0 868.7 0 823 0C777.3 0 731.7 0 686 0C640.3 0 594.7 0 548.8 0C503 0 457 0 411.2 0C365.3 0 319.7 0 274 0C228.3 0 182.7 0 137 0C91.3 0 45.7 0 22.8 0L0 0Z" fill="#282828"></path></svg>